<svg width="120" height="36" fill="none" xmlns="http://www.w3.org/2000/svg"><path d="M45.103 12.436c-2.792-.183-5.589.023-8.386.024-1.84 0-1.844 2.72 0 2.719 1.72 0 3.439-.004 5.157.035-1.157 1.081-2.362 2.113-3.387 3.33-1.854 2.203-3.39 4.59-5.303 6.742-.9 1.012-.145 2.436 1.011 2.488 2.907.132 5.529.085 8.33.063 1.84-.014 1.845-2.929 0-2.915-1.743.014-3.498.041-5.156-.056 1.054-1.41 1.997-2.902 3.141-4.261 1.722-2.045 3.956-3.565 5.605-5.68.775-.996.298-2.403-1.012-2.489zm23.544-8.128c-1.427.418-1.708 2.956-2.181 5.312-.632 3.148-.32-.434-4.06 15.252-.158.662-.454 1.969.202 2.572.392.359 1.1.448 1.587.186.54-.29.7-.956.756-1.189.43-1.75 3.559-13.37 4.256-15.879.773-2.783 1.743-5.205.735-6.038-.356-.294-.892-.334-1.295-.216zm3.805 12.266c-.885.388-1.072 1.494-1.447 3.405-1.105 5.647-1.583 6.858-.746 7.558.408.341 1.031.48 1.54.326 1.081-.327 1.112-1.823 2.192-6.53.628-2.74.983-3.834.327-4.48-.462-.453-1.284-.534-1.866-.279zm1.502-2.684c1.942.078 2.507.327 2.992-.267.282-.345.521-.956.39-1.469-.284-1.117-2.171-1.165-3.154-1.19-1.072-.027-2.783-.07-3.172 1.05-.149.43-.09.998.133 1.375.359.608.969.428 2.811.502zm16.654.001c1.942.077 2.507.326 2.992-.268.282-.345.521-.956.39-1.469-.284-1.117-2.171-1.165-3.154-1.19-1.072-.027-2.783-.07-3.171 1.05-.15.43-.091.998.132 1.375.359.608.969.429 2.811.502zm-5.022-1.737c-.155-.608-.785-.898-1.485-1.041l.153-.688c.635-2.818 1.485-5.285.437-6.067-.37-.276-.907-.29-1.304-.151-1.404.487-1.56 3.036-1.917 5.412a12.94 12.94 0 01-.256 1.358c-.852.063-1.696.292-1.954 1.037-.15.43-.09.998.132 1.375.205.346.491.437 1.04.464-.434 1.827-1.117 5.05-2.267 11.2-.125.668-.356 1.988.33 2.558.408.34 1.12.393 1.593.108.525-.317.651-.99.697-1.225.254-1.306 1.712-8.058 2.688-12.525.962.072 1.365.092 1.722-.346.282-.345.521-.956.39-1.469zm3.52 4.42c-.884.388-1.072 1.494-1.447 3.405-1.105 5.647-1.583 6.858-.746 7.558.408.341 1.032.48 1.54.326 1.081-.327 1.112-1.823 2.192-6.53.629-2.74.983-3.834.327-4.48-.462-.453-1.284-.534-1.866-.279zm14.75 4.464c-.354 2.209-2.061 3.346-2.376 3.547-2.202 1.408-4.554.602-4.84.498a338.97 338.97 0 002.112-9.418c.291-.045 2.195-.313 3.713 1.01 1.785 1.555 1.459 3.936 1.391 4.363zm2.561-2.29c-.512-2.56-2.482-4.953-5.034-5.534a5.736 5.736 0 00-2.161-.063c.14-.647.316-1.472.515-2.43.89-4.28 1.04-5.462.378-6.054-.267-.24-.723-.433-1.154-.35-1.559.3-1.36 3.921-2.817 9.81-.916 3.7-1.47 7.485-2.435 11.173-.127.486-.546 2.064.134 2.598.286.225.814.299 1.273.14.406-.142.638-.423.725-.541 2.95.903 6.118.223 8.25-1.827.282-.271 3.096-3.071 2.326-6.922zM53.302 25.03c-.37-.053-1.6-.228-2.38-1.05-1.393-1.468-.784-4.399.292-6.087 1.451-2.279 4.457-3.4 7.686-3.01a46.545 46.545 0 01-2.798 9.72 5.036 5.036 0 01-2.8.426zm8.432-11.693c-1.155-2.14-8.565-2.351-12.27 1.806-2.8 3.142-3.261 8.533-1.06 10.796 1.234 1.27 2.811 1.65 2.811 1.65 1.011.244 2.346.245 3.066.227.158-.004.327-.006.5-.011-.068.147-.135.295-.207.44-.755 1.54-1.787 3.44-3.478 4.11-1.854.736-4.022-.409-5.026-1.97-.993-1.544-3.47-.11-2.47 1.444 2.313 3.598 7.222 4.818 10.573 1.894 1.405-1.225 2.38-2.938 3.147-4.615.347-.76 1.07-2.625 2.43-6.356.687-1.886.979-3.538 1.704-6.791.442-1.983.463-2.284.28-2.624zm-50.64 2.187c-1.703 1.671-4.45 2.786-6.377.838-1.82-1.84-2.035-4.844-1.144-7.172 1.031-2.122 3.133-3.746 5.508-4.036 2.32-.283 3.915 1.111 4.327 3.352.472 2.566-.476 5.213-2.314 7.018zm5.387-6.483c-.206-2.56-1.387-4.848-3.423-6.043-1.184-.694-2.3-.81-2.8-.853-3.213-.276-6.587 1.626-8.406 4.353-2.007 3.007-2.993 8.323.256 11.43 2.669 2.55 7.141 2.749 9.782.825 3.064-2.232 4.897-5.897 4.59-9.712zm8.572-8.28c-.506-.297-1.168.041-1.367.143-1.616.824-2.107 3.275-2.33 4.46-1.827 9.726-2.741 14.589-2.22 14.788 1.352.517 5.125-7.23 6.262-13.856.218-1.27.83-4.843-.345-5.535zm-5.343 22.03c-.09-.097-.753-.782-1.77-.701-.682.054-1.426.443-1.74 1.139-.456 1.01.11 2.405 1.25 2.841 1.113.426 2.446-.185 2.798-1.216.262-.767-.084-1.578-.537-2.063zm5.868 4.99c.507.295 1.168-.047 1.367-.15 1.61-.834 2.087-3.288 2.302-4.474 1.77-9.737 2.656-14.605 2.134-14.801-1.356-.509-5.082 7.26-6.18 13.893-.21 1.27-.803 4.848.377 5.532zM30.87 5.729c.09.096.758.777 1.775.69.681-.057 1.422-.451 1.733-1.149.45-1.013-.123-2.404-1.267-2.834-1.115-.419-2.445.2-2.79 1.233-.258.769.092 1.578.548 2.06zm80.859 19.591c-.133-.032-1.516-.385-1.671-1.24-.22-1.213 2.218-2.361 2.483-2.483.402-.186 2.47-1.137 3.246-.287.541.592.14 1.712.09 1.853-.549 1.536-2.506 2.557-4.148 2.157zm8.073-8.746c-.235-.935-.636-2.528-2.096-3.526-1.396-.953-2.931-.797-4.016-.687-.983.1-3.074.494-3.163 1.314-.056.511.683 1.031 1.158 1.266 1.798.892 3.34-.561 4.618.373.668.49.851 1.328.89 1.506.204.93-.141 1.684-.263 1.923-.746-.208-3.269-.806-5.712.537-2.028 1.114-4.195 3.67-3.574 5.989.256.956.898 1.543 1.164 1.759 1.487 1.209 3.923 1.154 6.139-.178.061.173.192.46.469.687 0 0 .529.432 1.307.326 1.268-.172 1.96-2.963 2.514-5.283.674-2.82 1.002-4.267.565-6.006z" fill="#000"/></svg>