<svg viewBox="0 0 184 48" xmlns="http://www.w3.org/2000/svg" xmlns:xlink="http://www.w3.org/1999/xlink"><style>:root&gt;svg{display:none}:root&gt;svg:target{display:block}</style><svg fill="none" viewBox="0 0 25 16" id="css--arrow-right" xmlns="http://www.w3.org/2000/svg"><path d="M24.707 8.707a1 1 0 000-1.414L18.343.929a1 1 0 10-1.414 1.414L22.586 8l-5.657 5.657a1 1 0 001.414 1.414l6.364-6.364zM0 9h24V7H0v2z" fill="#fff"/></svg><svg fill="none" viewBox="0 0 80 34" id="css--brand-icon" xmlns="http://www.w3.org/2000/svg"><path d="M8.006 4.276L4.708.501H0v14.562h4.49V6.938l2.463 2.821H8.98l2.504-2.88v8.184h4.49V.501h-4.65L8.007 4.276zM25.587.144h-.794c-5.265.06-6.914 1.709-6.973 6.973v1.331c.06 5.264 1.708 6.913 6.973 6.973h.794c5.265-.06 6.914-1.708 6.973-6.973V7.117C32.5 1.853 30.852.204 25.587.144zm2.484 8.185c0 2.324-.457 2.781-2.782 2.781h-.159c-2.324 0-2.78-.457-2.78-2.781V7.196c0-2.284.456-2.78 2.78-2.78h.16c2.324 0 2.78.496 2.78 2.78V8.33zm19.945-2.841C48.016 2.23 46.109.5 42.433.5h-8.005v14.562h4.49v-4.748h1.727l2.603 4.748h5.046l-3-5.225c1.748-.735 2.722-2.205 2.722-4.35zm-5.483.576h-3.616V4.733h3.616c.636 0 .973.238.973.675 0 .437-.278.656-.973.656zm20.561 4.748h-8.76V9.759h8.76V5.766h-8.76V4.733h8.76V.5h-13.25v14.562h13.25v-4.251zM8.006 23.089l-3.298-3.795H0v14.562h4.49v-8.105l2.463 2.8H8.98l2.504-2.86v8.165h4.49V19.294h-4.65L8.007 23.09zm9.953 10.767h13.25v-4.231h-8.76v-1.073h8.76v-3.993h-8.76v-1.013h8.76v-4.252H17.96v14.562zm21.356-14.562h-6.139v14.562h6.139c5.264 0 7.588-1.828 7.588-6.973v-.616c0-5.125-2.324-6.973-7.588-6.973zm3.099 7.49c0 2.066-.934 2.82-3.417 2.82h-1.331v-6.078h1.33c2.484 0 3.418.775 3.418 2.82v.438zm31.686-7.49h-5.582l-5.88 14.562h4.727l.934-2.404h6l.933 2.404H80l-5.9-14.562zm-4.172 7.907l1.37-3.556 1.371 3.556h-2.741zm-12.436-7.907h-8.88v4.252h4.39v6.079h-4.39v4.231h13.25v-4.231h-4.37v-6.08h4.37v-4.25h-4.37z" fill="#000"/></svg><svg fill="none" viewBox="0 0 184 48" id="css--doc-icons" xmlns="http://www.w3.org/2000/svg"><path d="M0 6.563a6 6 0 016-6h22c6.627 0 12 5.372 12 12v28.874a6 6 0 01-6 6H6a6 6 0 01-6-6V6.563z" fill="#D1504B"/><path d="M40 12.438C40 5.585 37.667.562 28.125.562v6.875a5 5 0 005 5H40z" fill="#F7D1D0"/><path d="M15.135 22.868c.434 0 .81.072 1.127.217.322.144.57.35.742.616.173.266.26.58.26.945 0 .359-.087.674-.26.945-.173.266-.42.47-.742.616-.317.14-.693.21-1.127.21h-.987v1.35h-1.134v-4.9h2.121zm-.063 2.625c.34 0 .6-.073.777-.217.177-.15.266-.36.266-.63 0-.276-.088-.486-.266-.63-.177-.15-.436-.224-.777-.224h-.924v1.7h.924zm3-2.625H20.3c.532 0 1 .102 1.407.308.41.2.728.485.952.854.228.368.343.798.343 1.288s-.115.919-.343 1.288a2.276 2.276 0 01-.952.86c-.406.201-.875.302-1.407.302h-2.226v-4.9zm2.17 3.969c.49 0 .88-.136 1.17-.406.294-.276.44-.647.44-1.113 0-.467-.146-.836-.44-1.106-.29-.276-.68-.413-1.17-.413h-1.035v3.038h1.036zm4.748-3.06v1.296h2.268v.91H24.99v1.785h-1.134v-4.9h3.703v.91H24.99z" fill="#fff"/><path d="M48 6.563a6 6 0 016-6h22c6.627 0 12 5.372 12 12v28.874a6 6 0 01-6 6H54a6 6 0 01-6-6V6.563z" fill="#5F91DB"/><path d="M88 12.438C88 5.585 85.668.562 76.125.562v6.875a5 5 0 005 5H88z" fill="#E6EFFA"/><path d="M60.259 22.868h2.226c.532 0 1 .102 1.407.308.41.2.728.485.952.854.229.368.343.798.343 1.288s-.114.919-.343 1.288a2.276 2.276 0 01-.952.86c-.406.201-.875.302-1.407.302h-2.226v-4.9zm2.17 3.969c.49 0 .88-.136 1.169-.406.294-.276.44-.647.44-1.113 0-.467-.146-.836-.44-1.106-.29-.276-.68-.413-1.17-.413h-1.035v3.038h1.036zm5.986 1.015a2.88 2.88 0 01-1.379-.33 2.483 2.483 0 01-.959-.902 2.513 2.513 0 01-.343-1.302c0-.481.114-.913.343-1.295.233-.388.553-.691.959-.91.41-.22.87-.33 1.379-.33s.966.11 1.372.33a2.464 2.464 0 011.309 2.205c0 .48-.117.914-.35 1.302a2.483 2.483 0 01-.959.903 2.84 2.84 0 01-1.372.329zm0-.966c.29 0 .55-.066.784-.196a1.44 1.44 0 00.546-.56 1.62 1.62 0 00.203-.812c0-.304-.068-.574-.203-.812a1.384 1.384 0 00-.546-.553 1.533 1.533 0 00-.784-.203c-.29 0-.55.067-.784.203a1.43 1.43 0 00-.553.553c-.13.238-.196.508-.196.812 0 .303.065.574.196.812.135.238.32.424.553.56.233.13.495.196.784.196zm5.878.966c-.5 0-.952-.108-1.358-.322a2.495 2.495 0 01-.952-.903 2.526 2.526 0 01-.343-1.31c0-.485.115-.919.343-1.301.234-.388.55-.689.952-.903.406-.22.861-.33 1.365-.33.425 0 .808.075 1.148.225a2.3 2.3 0 01.868.644l-.728.672a1.564 1.564 0 00-1.232-.574c-.303 0-.574.067-.812.203-.238.13-.424.315-.56.553-.13.238-.196.508-.196.812 0 .303.066.574.196.812.136.238.322.424.56.56.238.13.509.196.812.196.49 0 .9-.194 1.232-.581l.728.672a2.271 2.271 0 01-.868.65c-.345.15-.73.225-1.155.225z" fill="#fff"/><path d="M96 6.563a6 6 0 016-6h22c6.627 0 12 5.372 12 12v28.874a6 6 0 01-6 6h-28a6 6 0 01-6-6V6.563z" fill="#A6CA59"/><path d="M136 12.438C136 5.585 133.668.562 124.125.562v6.875a5 5 0 005 5H136z" fill="#DAF2A8"/><path d="M104.929 12.281h5.5v1.32h-5.5v-1.32zm0 5h5.5v1.32h-5.5v-1.32zm5.5 0h5.5v1.32h-5.5v-1.32zm-5.5 5h5.5v1.32h-5.5v-1.32zm5.5 0h5.5v1.32h-5.5v-1.32zm5.5 0h5.5v1.32h-5.5v-1.32zm-11 5h5.5v1.32h-5.5v-1.32zm5.5 0h5.5v1.32h-5.5v-1.32zm-5.5 5h5.5v1.32h-5.5v-1.32zm5.5 0h5.5v1.32h-5.5v-1.32zm5.5 0h5.5v1.32h-5.5v-1.32z" fill="#fff"/><path d="M144 6.563a6 6 0 016-6h22c6.627 0 12 5.372 12 12v28.874a6 6 0 01-6 6h-28a6 6 0 01-6-6V6.563z" fill="#FFCF00"/><path d="M184 12.438C184 5.585 181.668.562 172.125.562v6.875a5 5 0 005 5H184z" fill="#FFF1B3"/><path d="M156.109 27.852c-.331 0-.637-.061-.917-.182a1.783 1.783 0 01-.679-.532l.63-.756c.266.359.569.539.91.539.462 0 .693-.271.693-.812v-2.331h-1.722v-.91h2.849v3.178c0 .602-.149 1.054-.448 1.358-.299.298-.737.448-1.316.448zm5.005-4.984c.434 0 .81.072 1.127.217.322.144.57.35.742.616.173.266.259.58.259.945 0 .359-.086.674-.259.945-.172.266-.42.47-.742.616-.317.14-.693.21-1.127.21h-.987v1.35h-1.134v-4.9h2.121zm-.063 2.625c.341 0 .6-.073.777-.217.178-.15.266-.36.266-.63 0-.276-.088-.486-.266-.63-.177-.15-.436-.224-.777-.224h-.924v1.7h.924zm6.795 1.365v.91h-3.794v-4.9h3.703v.91h-2.576v1.064h2.275v.882h-2.275v1.134h2.667zm4.199-1.617h1.036v1.988c-.266.2-.574.354-.924.462-.35.107-.702.16-1.057.16-.508 0-.966-.107-1.372-.321a2.487 2.487 0 01-.959-.903 2.533 2.533 0 01-.343-1.31c0-.485.115-.919.343-1.301.234-.388.556-.689.966-.903a2.89 2.89 0 011.386-.33c.43 0 .819.073 1.169.218.35.144.644.354.882.63l-.728.672a1.683 1.683 0 00-1.267-.553c-.312 0-.59.065-.833.196a1.41 1.41 0 00-.567.553 1.631 1.631 0 00-.203.819c0 .303.068.574.203.812.136.238.322.424.56.56.243.13.518.196.826.196.327 0 .621-.07.882-.21V25.24z" fill="#fff"/></svg><svg fill="none" viewBox="0 0 16 16" id="css--zoom" xmlns="http://www.w3.org/2000/svg"><path d="M13.307 7.653a5.633 5.633 0 01-1.64 3.981 5.625 5.625 0 01-4.014 1.673 5.653 5.653 0 115.654-5.654z" stroke="#CCC" stroke-width="1.5"/><path d="M12.104 12.104l2.487 2.487" stroke="#CCC" stroke-width="1.5" stroke-linecap="round"/></svg><svg fill="none" viewBox="0 0 9 12" id="sprite--angle-left" xmlns="http://www.w3.org/2000/svg"><path d="M7.754.947l-5.42 5.136 5.42 5.136" stroke="#3661F6" stroke-width="2"/></svg><svg fill="none" viewBox="0 0 9 12" id="sprite--angle-right" xmlns="http://www.w3.org/2000/svg"><path d="M1.246.947l5.42 5.136-5.42 5.136" stroke="#fff" stroke-width="2"/></svg><svg fill="none" viewBox="0 0 10 7" id="sprite--angle-top" xmlns="http://www.w3.org/2000/svg"><path d="M8.644 5.5l-4-4-4 4" stroke="#07A0C3" stroke-width="1.5"/></svg><svg fill="none" viewBox="0 0 16 16" id="sprite--info" xmlns="http://www.w3.org/2000/svg"><path d="M2.528 8a5.472 5.472 0 1110.944 0A5.472 5.472 0 012.528 8z" fill="gray" stroke="gray" stroke-width="1.5" stroke-linecap="round" stroke-linejoin="round"/><path d="M8 11.333v-4m0-2.666v.007" stroke="#fff" stroke-width="2" stroke-linecap="round" stroke-linejoin="round"/></svg></svg>