<svg width="80" height="34" viewBox="0 0 80 34" fill="none" xmlns="http://www.w3.org/2000/svg">
<path d="M8.00596 4.27598L4.70822 0.501465H0V15.0632H4.48969V6.93802L6.95306 9.75897H8.97939L11.4825 6.87842V15.0632H15.9722V0.501465H11.3236L8.00596 4.27598Z" fill="black"/>
<path d="M25.5874 0.144043H24.7928C19.5283 0.203641 17.8794 1.85251 17.8198 7.11697V8.44799C17.8794 13.7125 19.5283 15.3613 24.7928 15.4209H25.5874C30.8519 15.3613 32.5007 13.7125 32.5603 8.44799V7.11697C32.5007 1.85251 30.8519 0.203641 25.5874 0.144043ZM28.0706 8.32879C28.0706 10.6531 27.6137 11.11 25.2894 11.11H25.1305C22.8062 11.11 22.3492 10.6531 22.3492 8.32879V7.19644C22.3492 4.91186 22.8062 4.41521 25.1305 4.41521H25.2894C27.6137 4.41521 28.0706 4.91186 28.0706 7.19644V8.32879Z" fill="black"/>
<path d="M48.0158 5.48781C48.0158 2.2298 46.1086 0.501465 42.4334 0.501465H34.4275V15.0632H38.9172V10.3152H40.6455L43.2479 15.0632H48.2939L45.2941 9.83844C47.0423 9.1034 48.0158 7.63332 48.0158 5.48781ZM42.5328 6.06391H38.9172V4.7329H42.5328C43.1685 4.7329 43.5062 4.97129 43.5062 5.40834C43.5062 5.84539 43.2281 6.06391 42.5328 6.06391Z" fill="black"/>
<path d="M63.0941 10.8119H54.3332V9.75897H63.0941V5.76593H54.3332V4.7329H63.0941V0.501465H49.8435V15.0632H63.0941V10.8119Z" fill="black"/>
<path d="M8.00596 23.0888L4.70822 19.2944H0V33.8561H4.48969V25.7509L6.95306 28.5519H8.97939L11.4825 25.6913V33.8561H15.9722V19.2944H11.3236L8.00596 23.0888Z" fill="black"/>
<path d="M17.9587 33.8561H31.2093V29.6247H22.4484V28.5519H31.2093V24.5589H22.4484V23.5457H31.2093V19.2944H17.9587V33.8561Z" fill="black"/>
<path d="M39.3146 19.2944H33.176V33.8561H39.3146C44.5791 33.8561 46.9034 32.0285 46.9034 26.8832V26.2674C46.9034 21.142 44.5791 19.2944 39.3146 19.2944ZM42.4137 26.7839C42.4137 28.8499 41.48 29.6048 38.9967 29.6048H37.6657V23.5259H38.9967C41.48 23.5259 42.4137 24.3006 42.4137 26.3468V26.7839Z" fill="black"/>
<path d="M74.0998 19.2944H68.5175L62.6372 33.8561H67.3653L68.299 31.4524H74.2985L75.2322 33.8561H80L74.0998 19.2944ZM69.928 27.2011L71.2987 23.6451L72.6695 27.2011H69.928Z" fill="black"/>
<path d="M57.4919 19.2944H53.0022H50.8567H48.6118V23.5457H50.8567H53.0022V29.6247H50.8567H48.6118V33.8561H50.8567H53.0022H57.4919H59.6175H61.8624V29.6247H59.6175H57.4919V23.5457H59.6175H61.8624V19.2944H59.6175H57.4919Z" fill="black"/>
</svg>
