<svg width="184" height="48" viewBox="0 0 184 48" fill="none" xmlns="http://www.w3.org/2000/svg">
<path d="M0 6.5625C0 3.24879 2.68629 0.5625 6 0.5625H28C34.6274 0.5625 40 5.93508 40 12.5625V41.4375C40 44.7512 37.3137 47.4375 34 47.4375H6C2.68629 47.4375 0 44.7512 0 41.4375V6.5625Z" fill="#D1504B"/>
<path d="M40 12.4375C40 5.58482 37.6675 0.5625 28.125 0.5625V7.4375C28.125 10.1989 30.3636 12.4375 33.125 12.4375H40Z" fill="#F7D1D0"/>
<path d="M15.1352 22.8676C15.5692 22.8676 15.9448 22.9399 16.2622 23.0846C16.5842 23.2292 16.8315 23.4346 17.0042 23.7006C17.1768 23.9666 17.2632 24.2816 17.2632 24.6456C17.2632 25.0049 17.1768 25.3199 17.0042 25.5906C16.8315 25.8566 16.5842 26.0619 16.2622 26.2066C15.9448 26.3466 15.5692 26.4166 15.1352 26.4166H14.1482V27.7676H13.0142V22.8676H15.1352ZM15.0722 25.4926C15.4128 25.4926 15.6718 25.4202 15.8492 25.2756C16.0265 25.1262 16.1152 24.9162 16.1152 24.6456C16.1152 24.3702 16.0265 24.1602 15.8492 24.0156C15.6718 23.8662 15.4128 23.7916 15.0722 23.7916H14.1482V25.4926H15.0722ZM18.0728 22.8676H20.2988C20.8308 22.8676 21.2998 22.9702 21.7058 23.1756C22.1164 23.3762 22.4338 23.6609 22.6578 24.0296C22.8864 24.3982 23.0008 24.8276 23.0008 25.3176C23.0008 25.8076 22.8864 26.2369 22.6578 26.6056C22.4338 26.9742 22.1164 27.2612 21.7058 27.4666C21.2998 27.6672 20.8308 27.7676 20.2988 27.7676H18.0728V22.8676ZM20.2428 26.8366C20.7328 26.8366 21.1224 26.7012 21.4118 26.4306C21.7058 26.1552 21.8528 25.7842 21.8528 25.3176C21.8528 24.8509 21.7058 24.4822 21.4118 24.2116C21.1224 23.9362 20.7328 23.7986 20.2428 23.7986H19.2068V26.8366H20.2428ZM24.99 23.7776V25.0726H27.258V25.9826H24.99V27.7676H23.856V22.8676H27.559V23.7776H24.99Z" fill="white"/>
<path d="M48 6.5625C48 3.24879 50.6863 0.5625 54 0.5625H76C82.6274 0.5625 88 5.93508 88 12.5625V41.4375C88 44.7512 85.3137 47.4375 82 47.4375H54C50.6863 47.4375 48 44.7512 48 41.4375V6.5625Z" fill="#5F91DB"/>
<path d="M88 12.4375C88 5.58482 85.6675 0.5625 76.125 0.5625V7.4375C76.125 10.1989 78.3636 12.4375 81.125 12.4375H88Z" fill="#E6EFFA"/>
<path d="M60.2588 22.8676H62.4848C63.0168 22.8676 63.4858 22.9702 63.8918 23.1756C64.3025 23.3762 64.6198 23.6609 64.8438 24.0296C65.0725 24.3982 65.1868 24.8276 65.1868 25.3176C65.1868 25.8076 65.0725 26.2369 64.8438 26.6056C64.6198 26.9742 64.3025 27.2612 63.8918 27.4666C63.4858 27.6672 63.0168 27.7676 62.4848 27.7676H60.2588V22.8676ZM62.4288 26.8366C62.9188 26.8366 63.3085 26.7012 63.5978 26.4306C63.8918 26.1552 64.0388 25.7842 64.0388 25.3176C64.0388 24.8509 63.8918 24.4822 63.5978 24.2116C63.3085 23.9362 62.9188 23.7986 62.4288 23.7986H61.3928V26.8366H62.4288ZM68.415 27.8516C67.9063 27.8516 67.4467 27.7419 67.036 27.5226C66.63 27.3032 66.3103 27.0022 66.077 26.6196C65.8483 26.2322 65.734 25.7982 65.734 25.3176C65.734 24.8369 65.8483 24.4052 66.077 24.0226C66.3103 23.6352 66.63 23.3319 67.036 23.1126C67.4467 22.8932 67.9063 22.7836 68.415 22.7836C68.9237 22.7836 69.381 22.8932 69.787 23.1126C70.193 23.3319 70.5127 23.6352 70.746 24.0226C70.9793 24.4052 71.096 24.8369 71.096 25.3176C71.096 25.7982 70.9793 26.2322 70.746 26.6196C70.5127 27.0022 70.193 27.3032 69.787 27.5226C69.381 27.7419 68.9237 27.8516 68.415 27.8516ZM68.415 26.8856C68.7043 26.8856 68.9657 26.8202 69.199 26.6896C69.4323 26.5542 69.6143 26.3676 69.745 26.1296C69.8803 25.8916 69.948 25.6209 69.948 25.3176C69.948 25.0142 69.8803 24.7436 69.745 24.5056C69.6143 24.2676 69.4323 24.0832 69.199 23.9526C68.9657 23.8172 68.7043 23.7496 68.415 23.7496C68.1257 23.7496 67.8643 23.8172 67.631 23.9526C67.3977 24.0832 67.2133 24.2676 67.078 24.5056C66.9473 24.7436 66.882 25.0142 66.882 25.3176C66.882 25.6209 66.9473 25.8916 67.078 26.1296C67.2133 26.3676 67.3977 26.5542 67.631 26.6896C67.8643 26.8202 68.1257 26.8856 68.415 26.8856ZM74.2933 27.8516C73.7939 27.8516 73.3413 27.7442 72.9353 27.5296C72.5339 27.3102 72.2166 27.0092 71.9833 26.6266C71.7546 26.2392 71.6403 25.8029 71.6403 25.3176C71.6403 24.8322 71.7546 24.3982 71.9833 24.0156C72.2166 23.6282 72.5339 23.3272 72.9353 23.1126C73.3413 22.8932 73.7963 22.7836 74.3003 22.7836C74.7249 22.7836 75.1076 22.8582 75.4483 23.0076C75.7936 23.1569 76.0829 23.3716 76.3163 23.6516L75.5883 24.3236C75.2569 23.9409 74.8463 23.7496 74.3563 23.7496C74.0529 23.7496 73.7823 23.8172 73.5443 23.9526C73.3063 24.0832 73.1196 24.2676 72.9843 24.5056C72.8536 24.7436 72.7883 25.0142 72.7883 25.3176C72.7883 25.6209 72.8536 25.8916 72.9843 26.1296C73.1196 26.3676 73.3063 26.5542 73.5443 26.6896C73.7823 26.8202 74.0529 26.8856 74.3563 26.8856C74.8463 26.8856 75.2569 26.6919 75.5883 26.3046L76.3163 26.9766C76.0829 27.2612 75.7936 27.4782 75.4483 27.6276C75.1029 27.7769 74.7179 27.8516 74.2933 27.8516Z" fill="white"/>
<path d="M96 6.5625C96 3.24879 98.6863 0.5625 102 0.5625H124C130.627 0.5625 136 5.93508 136 12.5625V41.4375C136 44.7512 133.314 47.4375 130 47.4375H102C98.6863 47.4375 96 44.7512 96 41.4375V6.5625Z" fill="#A6CA59"/>
<path d="M136 12.4375C136 5.58482 133.668 0.5625 124.125 0.5625V7.4375C124.125 10.1989 126.364 12.4375 129.125 12.4375H136Z" fill="#DAF2A8"/>
<path d="M104.929 12.2812H110.429V13.6013H104.929V12.2812ZM104.929 17.2812H110.429V18.6013H104.929V17.2812ZM110.429 17.2812H115.929V18.6013H110.429V17.2812ZM104.929 22.2812H110.429V23.6013H104.929V22.2812ZM110.429 22.2812H115.929V23.6013H110.429V22.2812ZM115.929 22.2812H121.429V23.6013H115.929V22.2812ZM104.929 27.2812H110.429V28.6013H104.929V27.2812ZM110.429 27.2812H115.929V28.6013H110.429V27.2812ZM104.929 32.2812H110.429V33.6013H104.929V32.2812ZM110.429 32.2812H115.929V33.6013H110.429V32.2812ZM115.929 32.2812H121.429V33.6013H115.929V32.2812Z" fill="white"/>
<path d="M144 6.5625C144 3.24879 146.686 0.5625 150 0.5625H172C178.627 0.5625 184 5.93508 184 12.5625V41.4375C184 44.7512 181.314 47.4375 178 47.4375H150C146.686 47.4375 144 44.7512 144 41.4375V6.5625Z" fill="#FFCF00"/>
<path d="M184 12.4375C184 5.58482 181.668 0.5625 172.125 0.5625V7.4375C172.125 10.1989 174.364 12.4375 177.125 12.4375H184Z" fill="#FFF1B3"/>
<path d="M156.109 27.8516C155.778 27.8516 155.472 27.7909 155.192 27.6696C154.917 27.5436 154.69 27.3662 154.513 27.1376L155.143 26.3816C155.409 26.7409 155.712 26.9206 156.053 26.9206C156.515 26.9206 156.746 26.6499 156.746 26.1086V23.7776H155.024V22.8676H157.873V26.0456C157.873 26.6476 157.724 27.1002 157.425 27.4036C157.126 27.7022 156.688 27.8516 156.109 27.8516ZM161.114 22.8676C161.548 22.8676 161.924 22.9399 162.241 23.0846C162.563 23.2292 162.811 23.4346 162.983 23.7006C163.156 23.9666 163.242 24.2816 163.242 24.6456C163.242 25.0049 163.156 25.3199 162.983 25.5906C162.811 25.8566 162.563 26.0619 162.241 26.2066C161.924 26.3466 161.548 26.4166 161.114 26.4166H160.127V27.7676H158.993V22.8676H161.114ZM161.051 25.4926C161.392 25.4926 161.651 25.4202 161.828 25.2756C162.006 25.1262 162.094 24.9162 162.094 24.6456C162.094 24.3702 162.006 24.1602 161.828 24.0156C161.651 23.8662 161.392 23.7916 161.051 23.7916H160.127V25.4926H161.051ZM167.846 26.8576V27.7676H164.052V22.8676H167.755V23.7776H165.179V24.8416H167.454V25.7236H165.179V26.8576H167.846ZM172.045 25.2406H173.081V27.2286C172.815 27.4292 172.507 27.5832 172.157 27.6906C171.807 27.7979 171.455 27.8516 171.1 27.8516C170.592 27.8516 170.134 27.7442 169.728 27.5296C169.322 27.3102 169.003 27.0092 168.769 26.6266C168.541 26.2392 168.426 25.8029 168.426 25.3176C168.426 24.8322 168.541 24.3982 168.769 24.0156C169.003 23.6282 169.325 23.3272 169.735 23.1126C170.146 22.8932 170.608 22.7836 171.121 22.7836C171.551 22.7836 171.94 22.8559 172.29 23.0006C172.64 23.1452 172.934 23.3552 173.172 23.6306L172.444 24.3026C172.094 23.9339 171.672 23.7496 171.177 23.7496C170.865 23.7496 170.587 23.8149 170.344 23.9456C170.102 24.0762 169.913 24.2606 169.777 24.4986C169.642 24.7366 169.574 25.0096 169.574 25.3176C169.574 25.6209 169.642 25.8916 169.777 26.1296C169.913 26.3676 170.099 26.5542 170.337 26.6896C170.58 26.8202 170.855 26.8856 171.163 26.8856C171.49 26.8856 171.784 26.8156 172.045 26.6756V25.2406Z" fill="white"/>
</svg>
