<svg width="120" height="36" viewBox="0 0 120 36" fill="none" xmlns="http://www.w3.org/2000/svg">
<path d="M45.1034 12.4362C42.3109 12.2526 39.5144 12.4593 36.7175 12.46C34.8765 12.4607 34.8733 15.1794 36.7175 15.1789C38.4368 15.1785 40.1558 15.1746 41.8738 15.2139C40.7175 16.2953 39.5117 17.3268 38.4872 18.5435C36.6326 20.7466 35.0969 23.1343 33.1836 25.2863C32.2841 26.2978 33.0387 27.7216 34.195 27.7741C37.1022 27.9063 39.724 27.8587 42.5255 27.8371C44.3658 27.8228 44.37 24.9081 42.5255 24.9222C40.7823 24.9358 39.0267 24.9632 37.3692 24.8663C38.4227 23.4557 39.3663 21.9636 40.5104 20.6045C42.2316 18.56 44.4664 17.0401 46.115 14.9243C46.8904 13.9289 46.4131 12.5224 45.1034 12.4362Z" fill="black"/>
<path d="M68.647 4.30841C67.2205 4.72633 66.9387 7.2644 66.4659 9.6199C65.8336 12.7683 66.1458 9.18553 62.4055 24.8723C62.2476 25.5342 61.9521 26.841 62.6083 27.4437C62.9999 27.8029 63.7082 27.8916 64.1946 27.6304C64.7349 27.3396 64.8942 26.6742 64.9514 26.441C65.3815 24.6912 68.5097 13.0714 69.2069 10.5621C69.9798 7.77924 70.9503 5.35669 69.9421 4.52407C69.5857 4.22955 69.0503 4.19021 68.647 4.30841Z" fill="black"/>
<path d="M72.4516 16.574C71.5675 16.9616 71.3799 18.0676 71.0055 19.9794C69.8996 25.626 69.4223 26.8369 70.259 27.5368C70.6669 27.878 71.2905 28.0173 71.7986 27.8633C72.8801 27.5359 72.911 26.0404 73.991 21.3324C74.6194 18.5933 74.9738 17.4991 74.3177 16.8539C73.8563 16.4004 73.0337 16.3189 72.4516 16.574Z" fill="black"/>
<path d="M73.9544 13.8909C75.8957 13.9683 76.4608 14.2171 76.9458 13.6234C77.2278 13.2782 77.4672 12.6668 77.3365 12.154C77.052 11.0372 75.1648 10.9893 74.1816 10.9644C73.1098 10.9372 71.3989 10.894 71.0105 12.0139C70.8612 12.4447 70.9197 13.0118 71.1429 13.3893C71.5019 13.9968 72.1115 13.8174 73.9544 13.8909Z" fill="black"/>
<path d="M90.6084 13.891C92.5499 13.9684 93.115 14.217 93.5998 13.6234C93.882 13.2781 94.1214 12.6667 93.9907 12.154C93.706 11.0371 91.819 10.9893 90.8357 10.9645C89.7638 10.9373 88.053 10.894 87.6646 12.014C87.5152 12.4448 87.5739 13.0117 87.7971 13.3894C88.156 13.9968 88.7656 13.8175 90.6084 13.891Z" fill="black"/>
<path d="M85.5859 12.154C85.431 11.5461 84.8007 11.2561 84.1006 11.113C84.1608 10.841 84.2127 10.6082 84.2542 10.4251C84.8892 7.6075 85.7393 5.14024 84.6914 4.35806C84.3209 4.08159 83.7842 4.06872 83.3874 4.20659C81.9833 4.69425 81.8266 7.24287 81.4699 9.61876C81.3688 10.2931 81.2951 10.662 81.2136 10.9769C80.362 11.0397 79.5181 11.2688 79.2597 12.014C79.1104 12.4447 79.1691 13.0118 79.3921 13.3893C79.5966 13.7353 79.8833 13.8258 80.4318 13.8534C79.9981 15.6804 79.315 18.9025 78.165 25.0525C78.0398 25.7213 77.8093 27.0414 78.4942 27.6108C78.9028 27.9504 79.6145 28.0044 80.0875 27.7192C80.6129 27.4023 80.7392 26.7297 80.785 26.494C81.0387 25.1881 82.4967 18.4358 83.4729 13.9691C84.435 14.0408 84.8377 14.0606 85.1948 13.6234C85.4772 13.2782 85.7164 12.6668 85.5859 12.154Z" fill="black"/>
<path d="M89.1057 16.574C88.2217 16.9616 88.034 18.0676 87.6595 19.9794C86.5538 25.626 86.0765 26.8369 86.9131 27.5368C87.3212 27.878 87.9447 28.0173 88.4528 27.8633C89.5341 27.5359 89.5651 26.0404 90.6452 21.3324C91.2736 18.5933 91.628 17.4991 90.9719 16.8539C90.5104 16.4004 89.6878 16.3189 89.1057 16.574Z" fill="black"/>
<path d="M103.856 21.0375C103.502 23.2465 101.795 24.3845 101.48 24.5855C99.2781 25.9927 96.9263 25.1868 96.6402 25.0832C96.9548 23.768 97.2645 22.4379 97.569 21.0933C97.9832 19.264 98.377 17.4543 98.7516 15.6654C99.0431 15.6196 100.947 15.3522 102.465 16.6745C104.25 18.2301 103.924 20.6113 103.856 21.0375ZM106.417 18.7481C105.905 16.1881 103.935 13.795 101.383 13.2142C100.521 13.0182 99.7602 13.0667 99.2215 13.1509C99.3617 12.5035 99.5382 11.679 99.7373 10.7212C100.627 6.4408 100.777 5.2593 100.115 4.66667C99.8476 4.42704 99.3922 4.23391 98.9606 4.31671C97.4024 4.61606 97.6012 8.23818 96.1438 14.1273C95.2282 17.8272 94.6731 21.612 93.7092 25.2996C93.5819 25.7865 93.1631 27.3643 93.8427 27.8976C94.1293 28.1227 94.6567 28.1968 95.1159 28.0376C95.5225 27.8963 95.7538 27.6147 95.8407 27.4965C98.7911 28.4001 101.959 27.7197 104.091 25.6698C104.373 25.3988 107.187 22.599 106.417 18.7481Z" fill="black"/>
<path d="M53.3017 25.0294C52.9312 24.9772 51.7027 24.8018 50.9224 23.9799C49.5292 22.5119 50.1379 19.5813 51.2136 17.8927C52.6651 15.6141 55.6708 14.4921 58.8997 14.883C58.6236 16.4792 58.2325 18.2442 57.6753 20.1312C57.1899 21.7741 56.6501 23.2675 56.1021 24.6035C55.6608 24.8077 54.62 25.2154 53.3017 25.0294ZM61.7337 13.3367C60.5794 11.1969 53.1688 10.9859 49.4646 15.1425C46.6646 18.2847 46.2025 23.6757 48.4033 25.9391C49.6378 27.2088 51.2155 27.5893 51.2155 27.5893C52.2264 27.8334 53.5614 27.8336 54.2813 27.8157C54.4392 27.812 54.6077 27.8095 54.7819 27.805C54.7128 27.952 54.6458 28.1 54.5744 28.2456C53.8191 29.7851 52.7871 31.6844 51.0964 32.3552C49.2418 33.0911 47.0739 31.9464 46.07 30.3853C45.0772 28.8415 42.5995 30.2746 43.5993 31.8293C45.913 35.4271 50.8225 36.6465 54.1731 33.7232C55.578 32.4977 56.5538 30.7848 57.3198 29.1084C57.6674 28.3479 58.3891 26.4831 59.7498 22.7517C60.4374 20.8658 60.7287 19.2144 61.4539 15.9608C61.8957 13.978 61.917 13.6765 61.7337 13.3367Z" fill="black"/>
<path d="M11.0942 15.5236C9.39122 17.1953 6.64374 18.3096 4.71671 16.3616C2.89751 14.5226 2.68221 11.5183 3.57329 9.19016C4.60423 7.06785 6.70597 5.44358 9.08095 5.1537C11.4001 4.8708 12.9962 6.26528 13.4082 8.50633C13.8799 11.0716 12.9323 13.7193 11.0942 15.5236ZM16.4808 9.0412C16.2749 6.48077 15.0942 4.19323 13.0577 2.99831C11.8737 2.30375 10.7587 2.18823 10.2582 2.14513C7.04502 1.86885 3.67147 3.77102 1.85227 6.49758C-0.15451 9.50507 -1.14056 14.8208 2.108 17.9271C4.77661 20.4787 9.24905 20.6769 11.8903 18.7531C14.9541 16.5215 16.7873 12.8559 16.4808 9.0412Z" fill="black"/>
<path d="M25.0529 0.761425C24.5474 0.464216 23.885 0.802198 23.6856 0.903771C22.0695 1.72816 21.5792 4.17879 21.3564 5.3644C19.5286 15.0902 18.6148 19.953 19.1361 20.1522C20.4885 20.6692 24.2607 12.9219 25.3979 6.29573C25.6155 5.02678 26.2289 1.45259 25.0529 0.761425Z" fill="black"/>
<path d="M19.7109 22.7911C19.6202 22.6942 18.9571 22.0093 17.9393 22.0898C17.2579 22.1438 16.5144 22.5329 16.2002 23.2289C15.7438 24.2393 16.3091 25.6339 17.45 26.0705C18.5627 26.4961 19.8958 25.8848 20.2479 24.8539C20.5099 24.0867 20.1642 23.2758 19.7109 22.7911Z" fill="black"/>
<path d="M25.5781 27.7813C26.0854 28.0757 26.7458 27.7337 26.9445 27.6309C28.5556 26.797 29.0316 24.3434 29.2474 23.1567C31.0178 13.4203 31.9032 8.55216 31.3806 8.35599C30.0252 7.84723 26.2988 15.6163 25.2006 22.2491C24.9903 23.5195 24.398 27.0973 25.5781 27.7813Z" fill="black"/>
<path d="M30.8695 5.72853C30.9608 5.82492 31.6278 6.50589 32.6453 6.41934C33.3263 6.36158 34.0673 5.96798 34.3778 5.27002C34.828 4.25715 34.2545 2.86571 33.1111 2.43599C31.9958 2.017 30.6664 2.6361 30.3204 3.66882C30.0629 4.43759 30.4134 5.24678 30.8695 5.72853Z" fill="black"/>
<path d="M111.729 25.3205C111.596 25.2882 110.213 24.9354 110.058 24.0793C109.838 22.8665 112.276 21.7185 112.541 21.5965C112.943 21.4114 115.011 20.4601 115.787 21.31C116.328 21.9019 115.927 23.0223 115.877 23.1628C115.328 24.6988 113.371 25.7199 111.729 25.3205ZM119.802 16.574C119.567 15.6389 119.166 14.0459 117.706 13.0483C116.31 12.0953 114.775 12.2512 113.69 12.3612C112.707 12.461 110.616 12.8555 110.527 13.6752C110.471 14.1863 111.21 14.7065 111.685 14.9413C113.483 15.8326 115.025 14.3796 116.303 15.3145C116.971 15.8031 117.154 16.6421 117.193 16.8199C117.397 17.7503 117.052 18.5044 116.93 18.7428C116.184 18.5352 113.661 17.9372 111.218 19.2798C109.19 20.3939 107.023 22.9507 107.644 25.2687C107.9 26.2249 108.542 26.812 108.808 27.028C110.295 28.2368 112.731 28.1819 114.947 26.8497C115.008 27.0233 115.139 27.3096 115.416 27.5369C115.416 27.5369 115.945 27.9693 116.723 27.8635C117.991 27.6909 118.683 24.8996 119.237 22.58C119.911 19.7592 120.239 18.3133 119.802 16.574Z" fill="black"/>
</svg>
